<?xml version="1.0" standalone="no"?>
<!DOCTYPE svg PUBLIC "-//W3C//DTD SVG 20010904//EN"
 "http://www.w3.org/TR/2001/REC-SVG-20010904/DTD/svg10.dtd">
<svg version="1.0" xmlns="http://www.w3.org/2000/svg"
 width="176.000000pt" height="140.000000pt" viewBox="0 0 176.000000 140.000000"
 preserveAspectRatio="xMidYMid meet">

<g transform="translate(0.000000,140.000000) scale(0.100000,-0.100000)"
fill="#000000" stroke="none">
<path d="M0 700 l0 -700 880 0 880 0 0 700 0 700 -880 0 -880 0 0 -700z m345
85 c6 -85 3 -132 -9 -196 -9 -46 -17 -104 -19 -129 -3 -37 -4 -34 -5 17 -1 34
5 92 14 130 16 66 15 131 -1 268 -5 34 -4 46 3 36 6 -8 13 -65 17 -126z m247
123 c-22 -8 -177 -8 -217 1 -16 4 29 7 102 6 73 0 124 -3 115 -7z m43 -47 c-4
-14 0 -21 12 -24 14 -4 13 -5 -4 -6 -16 -1 -23 5 -23 17 0 17 8 32 17 32 3 0
2 -9 -2 -19z m156 -104 c88 -64 227 -116 394 -148 39 -7 63 -14 55 -16 -29 -6
-217 35 -286 63 -84 33 -188 99 -229 145 l-30 34 30 -26 c17 -14 46 -37 66
-52z m-99 41 c-19 -19 -14 -30 11 -23 21 6 21 5 3 -9 -22 -18 -36 -13 -36 13
0 20 8 31 24 31 6 0 5 -5 -2 -12z m58 -68 c-11 -20 3 -30 15 -10 3 6 12 10 18
10 7 -1 1 -9 -12 -20 -25 -22 -41 -18 -41 9 0 19 8 31 22 31 5 0 4 -9 -2 -20z
m-195 -70 c-22 -23 -26 -33 -17 -42 7 -7 12 -15 12 -19 0 -13 -51 -69 -63 -69
-6 0 3 15 21 33 29 30 30 34 16 49 -14 14 -13 19 16 52 18 20 35 34 38 31 3
-3 -7 -19 -23 -35z m270 20 c-4 -11 -2 -20 4 -20 6 0 11 5 11 10 0 6 5 10 10
10 17 0 11 -19 -10 -30 -16 -9 -22 -8 -26 5 -6 16 1 45 11 45 4 0 3 -9 0 -20z
m-326 -31 c-16 -16 -20 -29 -15 -51 3 -18 2 -27 -4 -23 -24 15 -3 95 25 95 11
0 10 -5 -6 -21z m396 -9 c-8 -25 10 -26 25 -2 10 15 10 15 8 -3 -4 -27 -48
-34 -48 -7 0 17 8 32 17 32 3 0 1 -9 -2 -20z m-308 -12 c-3 -8 -6 -5 -6 6 -1
11 2 17 5 13 3 -3 4 -12 1 -19z m388 -8 c-12 -20 7 -32 21 -13 7 10 14 13 14
8 0 -15 -21 -35 -37 -35 -7 0 -13 11 -13 25 0 14 5 25 11 25 5 0 7 -4 4 -10z
m103 -35 c13 20 13 20 10 0 -2 -11 -10 -21 -19 -23 -19 -3 -33 24 -22 41 4 7
9 2 13 -13 6 -24 6 -24 18 -5z m-498 -20 c-21 -25 -32 -17 -13 9 10 13 20 20
21 15 2 -5 -2 -16 -8 -24z m713 18 c-7 -2 -19 -2 -25 0 -7 3 -2 5 12 5 14 0
19 -2 13 -5z m-91 -71 c1 -28 0 -52 -4 -52 -5 0 -8 13 -8 29 0 16 -3 44 -6 62
-5 23 -3 31 4 24 5 -5 12 -34 14 -63z m195 -59 c-3 -10 -5 -2 -5 17 0 19 2 27
5 18 2 -10 2 -26 0 -35z m-157 -19 c-90 -22 -309 -34 -580 -32 -140 1 -212 3
-160 5 366 11 681 25 715 32 65 14 85 10 25 -5z m17 -30 c-3 -3 -12 -4 -19 -1
-8 3 -5 6 6 6 11 1 17 -2 13 -5z m-934 -74 c-8 -9 -23 25 -22 50 0 22 2 20 13
-10 7 -19 11 -37 9 -40z m896 66 c-20 -21 -757 -41 -776 -22 -4 3 115 7 263 7
148 1 312 5 364 9 134 10 154 11 149 6z m58 -22 c-3 -3 -12 -4 -19 -1 -8 3 -5
6 6 6 11 1 17 -2 13 -5z m-62 -15 c-56 -16 -301 -29 -545 -27 l-245 1 285 9
c157 4 330 12 385 17 55 4 111 8 125 9 23 0 22 -1 -5 -9z"/>
</g>
</svg>
